<svg width="231" height="43" viewBox="0 0 231 43" fill="none" xmlns="http://www.w3.org/2000/svg">
<path d="M44.2917 12.1967H41.3171C40.7116 12.1967 40.1562 12.7018 40.1562 13.3103V26.7268C40.1562 32.9506 44.0406 37.154 50.3501 37.154C54.1311 37.154 56.7039 35.6357 58.2192 33.4085V35.4349C58.2192 36.0434 58.7746 36.4953 59.3299 36.4953H62.3045C62.91 36.4953 63.4653 35.9902 63.4653 35.3846V13.3634C63.4653 12.7077 62.91 12.1996 62.3045 12.1996H59.3299C58.7746 12.1996 58.2192 12.7077 58.2192 13.3162V25.9204C58.2192 29.8195 55.7971 32.5991 51.7089 32.5991C47.5232 32.5991 45.4023 29.917 45.4023 25.8672V13.3162C45.4023 12.7018 44.9002 12.1967 44.2917 12.1967Z" fill="white"/>
<path d="M18.4115 0C8.22361 0 0.00295388 7.94002 0 18.5622V18.5858C0.00295388 29.2109 8.22361 37.151 18.4115 37.151C20.1543 37.151 21.838 36.9087 23.4361 36.4745L25.4241 41.6556C25.6279 42.211 26.0267 42.5654 26.7888 42.5654H29.9701C30.7233 42.5654 31.2787 42.0603 30.9301 41.1003L28.3395 34.3182C33.4527 31.0985 36.8349 25.3886 36.8349 18.577C36.826 7.94299 28.6054 0 18.4115 0ZM26.4284 29.3379L24.1125 23.2825C23.9117 22.7744 23.5099 22.3166 22.6031 22.3166H19.5754C18.8221 22.3166 18.2136 22.8246 18.5681 23.7847L21.6254 31.7513C20.6122 32.0053 19.537 32.1382 18.4175 32.1382C10.9471 32.1382 5.65078 26.2689 5.65078 18.574C5.65078 10.8762 10.9471 5.00683 18.4175 5.00683C25.8849 5.00683 31.1812 10.8821 31.1812 18.574C31.1782 23.0432 29.3911 26.8892 26.4284 29.3379Z" fill="white"/>
<path d="M222.395 13.1556C222.141 12.4969 221.689 12.1897 221.084 12.1897H217.453C216.845 12.1897 216.396 12.4939 216.139 13.1556L210.237 29.3015L204.181 13.1556C203.93 12.4969 203.476 12.1897 202.873 12.1897H199.29C198.681 12.1897 198.226 12.4939 197.975 13.1556L192.02 29.3015L186.065 13.1556C185.814 12.4969 185.359 12.1897 184.757 12.1897H181.171C180.565 12.1897 180.113 12.4939 179.859 13.1556L173.857 29.3015L167.902 13.1556C167.648 12.4969 167.196 12.1897 166.587 12.1897H162.957C162.352 12.1897 161.897 12.4939 161.646 13.1556L153.221 35.2743C152.97 35.8828 153.274 36.4854 154.031 36.4854H157.256C157.862 36.4854 158.367 36.1841 158.568 35.5756L164.774 18.8743L170.983 35.5756C171.234 36.2343 171.689 36.4854 172.291 36.4854H175.269C175.874 36.4854 176.332 36.2343 176.58 35.5756L182.937 18.8743L189.093 35.5756C189.344 36.1841 189.799 36.4854 190.402 36.4854H193.53C194.135 36.4854 194.587 36.1841 194.841 35.5756L201.044 18.8743L207.354 35.5756C207.608 36.2343 208.06 36.4854 208.665 36.4854H211.643C212.246 36.4854 212.703 36.2343 212.952 35.5756L219.208 18.9747L225.364 35.5756C225.568 36.1841 226.07 36.4854 226.672 36.4854H230.007C230.761 36.4854 231.065 35.8769 230.814 35.2743L222.395 13.1556Z" fill="white"/>
<path d="M91.1656 12.1961H88.1881C87.5855 12.1961 87.0301 12.7012 87.0301 13.36V15.3863C85.5178 13.1118 82.5905 11.4901 79.1078 11.4901C72.5443 11.4901 66.8965 16.7067 66.8965 24.2952C66.8965 31.9901 72.5502 37.1535 79.0576 37.1535C82.5905 37.1535 85.4646 35.5318 87.0301 33.2573V35.3841C87.0301 35.9926 87.5855 36.5007 88.1881 36.5007H91.1656C91.7711 36.5007 92.2762 35.9926 92.2762 35.3841V13.3629C92.2762 12.7012 91.7711 12.1961 91.1656 12.1961ZM79.6632 32.2914C75.3269 32.2914 72.246 28.7467 72.246 24.3425C72.246 19.888 75.3269 16.4468 79.6632 16.4468C83.9492 16.4468 87.0774 19.891 87.0774 24.3425C87.0774 28.7467 83.9522 32.2914 79.6632 32.2914Z" fill="white"/>
<path d="M118.822 16.2936C120.639 16.2936 122.205 16.9494 123.516 17.7588C124.072 18.1132 124.724 18.3141 125.28 17.5549L126.692 15.5817C127.297 14.7192 126.789 14.1639 126.438 13.9128C124.367 12.3443 121.643 11.4847 118.666 11.4847C111.148 11.4847 106.156 17.0528 106.156 24.343C106.156 31.6302 111.154 37.151 118.666 37.151C121.643 37.151 124.367 36.2885 126.438 34.7199C126.795 34.4659 127.35 33.8574 126.692 33.0481L125.176 31.1251C124.574 30.3157 123.968 30.5698 123.413 30.871C122.101 31.6302 120.639 32.3391 118.822 32.3391C114.433 32.3391 111.509 28.8447 111.509 24.34C111.509 19.8383 114.433 16.2936 118.822 16.2936Z" fill="white"/>
<path d="M140.713 11.5367C133.648 11.5367 128 17.1048 128 24.3418C128 31.629 133.654 37.1499 140.713 37.1499C147.779 37.1499 153.424 31.629 153.424 24.3418C153.43 17.1048 147.779 11.5367 140.713 11.5367ZM140.713 32.2375C136.377 32.2375 133.296 28.746 133.296 24.3418C133.296 19.8873 136.377 16.4461 140.713 16.4461C145.05 16.4461 148.128 19.8903 148.128 24.3418C148.128 28.746 145.053 32.2375 140.713 32.2375Z" fill="white"/>
<path d="M101.617 36.4908C102.27 36.4908 102.728 35.9355 102.728 35.327V1.81813C102.728 1.20963 102.27 0.654297 101.617 0.654297H98.6394C98.0338 0.654297 97.4785 1.20963 97.4785 1.82108V35.3299C97.4785 35.9384 98.0338 36.4967 98.6394 36.4967L101.617 36.4938V36.4908Z" fill="white"/>
</svg>
